<?xml version="1.0" standalone="no"?>
<!DOCTYPE svg PUBLIC "-//W3C//DTD SVG 20010904//EN"
 "http://www.w3.org/TR/2001/REC-SVG-20010904/DTD/svg10.dtd">
<svg version="1.0" xmlns="http://www.w3.org/2000/svg"
 width="143.000000pt" height="143.000000pt" viewBox="0 0 143.000000 143.000000"
 preserveAspectRatio="xMidYMid meet">
<metadata>
Created by potrace 1.11, written by Peter Selinger 2001-2013
</metadata>
<g transform="translate(0.000000,143.000000) scale(0.100000,-0.100000)"
fill="#000000" stroke="none">
<path d="M670 1197 c-3 -3 -18 -7 -35 -10 -16 -3 -59 -12 -95 -22 -349 -91
-447 -337 -258 -648 71 -116 100 -151 172 -201 124 -88 275 -148 371 -148 132
1 235 64 303 186 53 95 76 162 91 265 36 242 -97 474 -317 554 -53 19 -220 36
-232 24z"/>
</g>
</svg>
